<?xml version="1.0" encoding="UTF-8" standalone="no"?>
<!DOCTYPE svg PUBLIC "-//W3C//DTD SVG 1.1//EN"
 "http://www.w3.org/Graphics/SVG/1.1/DTD/svg11.dtd">
<!-- Generated by graphviz version 2.38.0 (20140413.2041)
 -->
<!-- Title: model_graph Pages: 1 -->
<svg width="1261pt" height="258pt"
 viewBox="0.00 0.00 1261.00 258.00" xmlns="http://www.w3.org/2000/svg" xmlns:xlink="http://www.w3.org/1999/xlink">
<g id="graph0" class="graph" transform="scale(1 1) rotate(0) translate(4 254)">
<title>model_graph</title>
<polygon fill="white" stroke="none" points="-4,4 -4,-254 1257,-254 1257,4 -4,4"/>
<!-- rest_apis_models_userinfo -->
<g id="node1" class="node"><title>rest_apis_models_userinfo</title>
<polygon fill="white" stroke="none" points="681,-4 681,-79 801,-79 801,-4 681,-4"/>
<polygon fill="#1b563f" stroke="none" points="682,-56.5 682,-77.5 800,-77.5 800,-56.5 682,-56.5"/>
<text text-anchor="start" x="709" y="-65.5" font-family="Roboto" font-size="8.00"> &#160;&#160;&#160;</text>
<text text-anchor="start" x="719" y="-65.5" font-family="Roboto" font-weight="bold" font-size="10.00" fill="white"> &#160;&#160;&#160;userinfo &#160;&#160;&#160;</text>
<text text-anchor="start" x="684" y="-49.1" font-family="Roboto" font-size="8.00"> &#160;&#160;&#160;</text>
<text text-anchor="start" x="694" y="-49.1" font-family="Roboto" font-weight="bold" font-size="8.00">id</text>
<text text-anchor="start" x="701" y="-49.1" font-family="Roboto" font-size="8.00"> &#160;&#160;&#160;</text>
<text text-anchor="start" x="742" y="-49.1" font-family="Roboto" font-size="8.00"> &#160;&#160;&#160;</text>
<text text-anchor="start" x="752" y="-49.1" font-family="Roboto" font-weight="bold" font-size="8.00">AutoField</text>
<text text-anchor="start" x="788" y="-49.1" font-family="Roboto" font-size="8.00"> &#160;&#160;&#160;</text>
<text text-anchor="start" x="684" y="-36.1" font-family="Roboto" font-size="8.00"> &#160;&#160;&#160;</text>
<text text-anchor="start" x="694" y="-36.1" font-family="Roboto" font-size="8.00">aboutme</text>
<text text-anchor="start" x="728" y="-36.1" font-family="Roboto" font-size="8.00"> &#160;&#160;&#160;</text>
<text text-anchor="start" x="742" y="-36.1" font-family="Roboto" font-size="8.00"> &#160;&#160;&#160;</text>
<text text-anchor="start" x="752" y="-36.1" font-family="Roboto" font-size="8.00">CharField</text>
<text text-anchor="start" x="788" y="-36.1" font-family="Roboto" font-size="8.00"> &#160;&#160;&#160;</text>
<text text-anchor="start" x="684" y="-23.1" font-family="Roboto" font-size="8.00"> &#160;&#160;&#160;</text>
<text text-anchor="start" x="694" y="-23.1" font-family="Roboto" font-size="8.00">location</text>
<text text-anchor="start" x="725" y="-23.1" font-family="Roboto" font-size="8.00"> &#160;&#160;&#160;</text>
<text text-anchor="start" x="742" y="-23.1" font-family="Roboto" font-size="8.00"> &#160;&#160;&#160;</text>
<text text-anchor="start" x="752" y="-23.1" font-family="Roboto" font-size="8.00">CharField</text>
<text text-anchor="start" x="788" y="-23.1" font-family="Roboto" font-size="8.00"> &#160;&#160;&#160;</text>
<text text-anchor="start" x="684" y="-10.1" font-family="Roboto" font-size="8.00"> &#160;&#160;&#160;</text>
<text text-anchor="start" x="694" y="-10.1" font-family="Roboto" font-size="8.00">name</text>
<text text-anchor="start" x="716" y="-10.1" font-family="Roboto" font-size="8.00"> &#160;&#160;&#160;</text>
<text text-anchor="start" x="742" y="-10.1" font-family="Roboto" font-size="8.00"> &#160;&#160;&#160;</text>
<text text-anchor="start" x="752" y="-10.1" font-family="Roboto" font-size="8.00">CharField</text>
<text text-anchor="start" x="788" y="-10.1" font-family="Roboto" font-size="8.00"> &#160;&#160;&#160;</text>
<polygon fill="none" stroke="black" points="681,-4 681,-79 801,-79 801,-4 681,-4"/>
</g>
<!-- rest_apis_models_profileimage -->
<g id="node2" class="node"><title>rest_apis_models_profileimage</title>
<polygon fill="white" stroke="none" points="8,-158 8,-220 180,-220 180,-158 8,-158"/>
<polygon fill="#1b563f" stroke="none" points="9,-198 9,-219 179,-219 179,-198 9,-198"/>
<text text-anchor="start" x="53" y="-207" font-family="Roboto" font-size="8.00"> &#160;&#160;&#160;</text>
<text text-anchor="start" x="63" y="-207" font-family="Roboto" font-weight="bold" font-size="10.00" fill="white"> &#160;&#160;&#160;profileimage &#160;&#160;&#160;</text>
<text text-anchor="start" x="11" y="-190.6" font-family="Roboto" font-size="8.00"> &#160;&#160;&#160;</text>
<text text-anchor="start" x="21" y="-190.6" font-family="Roboto" font-weight="bold" font-size="8.00">id</text>
<text text-anchor="start" x="28" y="-190.6" font-family="Roboto" font-size="8.00"> &#160;&#160;&#160;</text>
<text text-anchor="start" x="100" y="-190.6" font-family="Roboto" font-size="8.00"> &#160;&#160;&#160;</text>
<text text-anchor="start" x="110" y="-190.6" font-family="Roboto" font-weight="bold" font-size="8.00">AutoField</text>
<text text-anchor="start" x="146" y="-190.6" font-family="Roboto" font-size="8.00"> &#160;&#160;&#160;</text>
<text text-anchor="start" x="11" y="-177.6" font-family="Roboto" font-size="8.00"> &#160;&#160;&#160;</text>
<text text-anchor="start" x="21" y="-177.6" font-family="Roboto" font-weight="bold" font-size="8.00">user</text>
<text text-anchor="start" x="38" y="-177.6" font-family="Roboto" font-size="8.00"> &#160;&#160;&#160;</text>
<text text-anchor="start" x="100" y="-177.6" font-family="Roboto" font-size="8.00"> &#160;&#160;&#160;</text>
<text text-anchor="start" x="110" y="-177.6" font-family="Roboto" font-weight="bold" font-size="8.00">ForeignKey (id)</text>
<text text-anchor="start" x="167" y="-177.6" font-family="Roboto" font-size="8.00"> &#160;&#160;&#160;</text>
<text text-anchor="start" x="11" y="-164.6" font-family="Roboto" font-size="8.00"> &#160;&#160;&#160;</text>
<text text-anchor="start" x="21" y="-164.6" font-family="Roboto" font-size="8.00">profile_image_url</text>
<text text-anchor="start" x="86" y="-164.6" font-family="Roboto" font-size="8.00"> &#160;&#160;&#160;</text>
<text text-anchor="start" x="100" y="-164.6" font-family="Roboto" font-size="8.00"> &#160;&#160;&#160;</text>
<text text-anchor="start" x="110" y="-164.6" font-family="Roboto" font-size="8.00">URLField</text>
<text text-anchor="start" x="144" y="-164.6" font-family="Roboto" font-size="8.00"> &#160;&#160;&#160;</text>
<polygon fill="none" stroke="black" points="8,-158 8,-220 180,-220 180,-158 8,-158"/>
</g>
<!-- rest_apis_models_profileimage&#45;&gt;rest_apis_models_userinfo -->
<g id="edge1" class="edge"><title>rest_apis_models_profileimage&#45;&gt;rest_apis_models_userinfo</title>
<path fill="none" stroke="black" d="M151.339,-149.819C165.763,-141.575 181.55,-133.649 197,-128 360.868,-68.0877 567.564,-50.145 672.745,-44.7807"/>
<ellipse fill="black" stroke="black" cx="147.83" cy="-151.867" rx="4.00002" ry="4.00002"/>
<text text-anchor="middle" x="320.5" y="-103.6" font-family="Roboto" font-size="8.00"> user (profileimage)</text>
</g>
<!-- rest_apis_models_communication -->
<g id="node3" class="node"><title>rest_apis_models_communication</title>
<polygon fill="white" stroke="none" points="214,-151.5 214,-226.5 366,-226.5 366,-151.5 214,-151.5"/>
<polygon fill="#1b563f" stroke="none" points="215,-204 215,-225 365,-225 365,-204 215,-204"/>
<text text-anchor="start" x="242.5" y="-213" font-family="Roboto" font-size="8.00"> &#160;&#160;&#160;</text>
<text text-anchor="start" x="252.5" y="-213" font-family="Roboto" font-weight="bold" font-size="10.00" fill="white"> &#160;&#160;&#160;communication &#160;&#160;&#160;</text>
<text text-anchor="start" x="217" y="-196.6" font-family="Roboto" font-size="8.00"> &#160;&#160;&#160;</text>
<text text-anchor="start" x="227" y="-196.6" font-family="Roboto" font-weight="bold" font-size="8.00">id</text>
<text text-anchor="start" x="234" y="-196.6" font-family="Roboto" font-size="8.00"> &#160;&#160;&#160;</text>
<text text-anchor="start" x="286" y="-196.6" font-family="Roboto" font-size="8.00"> &#160;&#160;&#160;</text>
<text text-anchor="start" x="296" y="-196.6" font-family="Roboto" font-weight="bold" font-size="8.00">AutoField</text>
<text text-anchor="start" x="332" y="-196.6" font-family="Roboto" font-size="8.00"> &#160;&#160;&#160;</text>
<text text-anchor="start" x="217" y="-183.6" font-family="Roboto" font-size="8.00"> &#160;&#160;&#160;</text>
<text text-anchor="start" x="227" y="-183.6" font-family="Roboto" font-weight="bold" font-size="8.00">user</text>
<text text-anchor="start" x="244" y="-183.6" font-family="Roboto" font-size="8.00"> &#160;&#160;&#160;</text>
<text text-anchor="start" x="286" y="-183.6" font-family="Roboto" font-size="8.00"> &#160;&#160;&#160;</text>
<text text-anchor="start" x="296" y="-183.6" font-family="Roboto" font-weight="bold" font-size="8.00">ForeignKey (id)</text>
<text text-anchor="start" x="353" y="-183.6" font-family="Roboto" font-size="8.00"> &#160;&#160;&#160;</text>
<text text-anchor="start" x="217" y="-170.6" font-family="Roboto" font-size="8.00"> &#160;&#160;&#160;</text>
<text text-anchor="start" x="227" y="-170.6" font-family="Roboto" font-size="8.00">medium</text>
<text text-anchor="start" x="258" y="-170.6" font-family="Roboto" font-size="8.00"> &#160;&#160;&#160;</text>
<text text-anchor="start" x="286" y="-170.6" font-family="Roboto" font-size="8.00"> &#160;&#160;&#160;</text>
<text text-anchor="start" x="296" y="-170.6" font-family="Roboto" font-size="8.00">CharField</text>
<text text-anchor="start" x="332" y="-170.6" font-family="Roboto" font-size="8.00"> &#160;&#160;&#160;</text>
<text text-anchor="start" x="217" y="-157.6" font-family="Roboto" font-size="8.00"> &#160;&#160;&#160;</text>
<text text-anchor="start" x="227" y="-157.6" font-family="Roboto" font-size="8.00">medium_url</text>
<text text-anchor="start" x="272" y="-157.6" font-family="Roboto" font-size="8.00"> &#160;&#160;&#160;</text>
<text text-anchor="start" x="286" y="-157.6" font-family="Roboto" font-size="8.00"> &#160;&#160;&#160;</text>
<text text-anchor="start" x="296" y="-157.6" font-family="Roboto" font-size="8.00">URLField</text>
<text text-anchor="start" x="330" y="-157.6" font-family="Roboto" font-size="8.00"> &#160;&#160;&#160;</text>
<polygon fill="none" stroke="black" points="214,-151.5 214,-226.5 366,-226.5 366,-151.5 214,-151.5"/>
</g>
<!-- rest_apis_models_communication&#45;&gt;rest_apis_models_userinfo -->
<g id="edge2" class="edge"><title>rest_apis_models_communication&#45;&gt;rest_apis_models_userinfo</title>
<path fill="none" stroke="black" d="M353.309,-143.196C362.971,-137.537 373.047,-132.252 383,-128 479.373,-86.8331 599.191,-63.3221 672.864,-51.7402"/>
<ellipse fill="black" stroke="black" cx="349.783" cy="-145.313" rx="4.00002" ry="4.00002"/>
<text text-anchor="middle" x="492" y="-103.6" font-family="Roboto" font-size="8.00"> user (communication)</text>
</g>
<!-- rest_apis_models_hobby -->
<g id="node4" class="node"><title>rest_apis_models_hobby</title>
<polygon fill="white" stroke="none" points="400.5,-158 400.5,-220 549.5,-220 549.5,-158 400.5,-158"/>
<polygon fill="#1b563f" stroke="none" points="402,-198 402,-219 549,-219 549,-198 402,-198"/>
<text text-anchor="start" x="448.5" y="-207" font-family="Roboto" font-size="8.00"> &#160;&#160;&#160;</text>
<text text-anchor="start" x="458.5" y="-207" font-family="Roboto" font-weight="bold" font-size="10.00" fill="white"> &#160;&#160;&#160;hobby &#160;&#160;&#160;</text>
<text text-anchor="start" x="404" y="-190.6" font-family="Roboto" font-size="8.00"> &#160;&#160;&#160;</text>
<text text-anchor="start" x="414" y="-190.6" font-family="Roboto" font-weight="bold" font-size="8.00">id</text>
<text text-anchor="start" x="421" y="-190.6" font-family="Roboto" font-size="8.00"> &#160;&#160;&#160;</text>
<text text-anchor="start" x="491" y="-190.6" font-family="Roboto" font-size="8.00"> &#160;&#160;&#160;</text>
<text text-anchor="start" x="501" y="-190.6" font-family="Roboto" font-weight="bold" font-size="8.00">AutoField</text>
<text text-anchor="start" x="537" y="-190.6" font-family="Roboto" font-size="8.00"> &#160;&#160;&#160;</text>
<text text-anchor="start" x="404" y="-177.6" font-family="Roboto" font-size="8.00"> &#160;&#160;&#160;</text>
<text text-anchor="start" x="414" y="-177.6" font-family="Roboto" font-size="8.00">hobby_image_url</text>
<text text-anchor="start" x="477" y="-177.6" font-family="Roboto" font-size="8.00"> &#160;&#160;&#160;</text>
<text text-anchor="start" x="491" y="-177.6" font-family="Roboto" font-size="8.00"> &#160;&#160;&#160;</text>
<text text-anchor="start" x="501" y="-177.6" font-family="Roboto" font-size="8.00">URLField</text>
<text text-anchor="start" x="535" y="-177.6" font-family="Roboto" font-size="8.00"> &#160;&#160;&#160;</text>
<text text-anchor="start" x="404" y="-164.6" font-family="Roboto" font-size="8.00"> &#160;&#160;&#160;</text>
<text text-anchor="start" x="414" y="-164.6" font-family="Roboto" font-size="8.00">name</text>
<text text-anchor="start" x="436" y="-164.6" font-family="Roboto" font-size="8.00"> &#160;&#160;&#160;</text>
<text text-anchor="start" x="491" y="-164.6" font-family="Roboto" font-size="8.00"> &#160;&#160;&#160;</text>
<text text-anchor="start" x="501" y="-164.6" font-family="Roboto" font-size="8.00">CharField</text>
<text text-anchor="start" x="537" y="-164.6" font-family="Roboto" font-size="8.00"> &#160;&#160;&#160;</text>
<polygon fill="none" stroke="black" points="400.5,-158 400.5,-220 549.5,-220 549.5,-158 400.5,-158"/>
</g>
<!-- rest_apis_models_hobby&#45;&gt;rest_apis_models_userinfo -->
<g id="edge3" class="edge"><title>rest_apis_models_hobby&#45;&gt;rest_apis_models_userinfo</title>
<path fill="none" stroke="black" d="M531.304,-149.266C542.629,-141.935 554.568,-134.526 566,-128 597.809,-109.843 634.029,-91.7442 665.234,-76.9051"/>
<ellipse fill="black" stroke="black" cx="527.691" cy="-151.625" rx="4.00002" ry="4.00002"/>
<ellipse fill="black" stroke="black" cx="669.022" cy="-75.1121" rx="4.00002" ry="4.00002"/>
<text text-anchor="middle" x="641" y="-103.6" font-family="Roboto" font-size="8.00"> users (hobby)</text>
</g>
<!-- rest_apis_models_skills -->
<g id="node5" class="node"><title>rest_apis_models_skills</title>
<polygon fill="white" stroke="none" points="583.5,-158 583.5,-220 720.5,-220 720.5,-158 583.5,-158"/>
<polygon fill="#1b563f" stroke="none" points="585,-198 585,-219 720,-219 720,-198 585,-198"/>
<text text-anchor="start" x="627" y="-207" font-family="Roboto" font-size="8.00"> &#160;&#160;&#160;</text>
<text text-anchor="start" x="637" y="-207" font-family="Roboto" font-weight="bold" font-size="10.00" fill="white"> &#160;&#160;&#160;skills &#160;&#160;&#160;</text>
<text text-anchor="start" x="587" y="-190.6" font-family="Roboto" font-size="8.00"> &#160;&#160;&#160;</text>
<text text-anchor="start" x="597" y="-190.6" font-family="Roboto" font-weight="bold" font-size="8.00">id</text>
<text text-anchor="start" x="604" y="-190.6" font-family="Roboto" font-size="8.00"> &#160;&#160;&#160;</text>
<text text-anchor="start" x="653" y="-190.6" font-family="Roboto" font-size="8.00"> &#160;&#160;&#160;</text>
<text text-anchor="start" x="663" y="-190.6" font-family="Roboto" font-weight="bold" font-size="8.00">AutoField</text>
<text text-anchor="start" x="699" y="-190.6" font-family="Roboto" font-size="8.00"> &#160;&#160;&#160;</text>
<text text-anchor="start" x="587" y="-177.6" font-family="Roboto" font-size="8.00"> &#160;&#160;&#160;</text>
<text text-anchor="start" x="597" y="-177.6" font-family="Roboto" font-size="8.00">name</text>
<text text-anchor="start" x="619" y="-177.6" font-family="Roboto" font-size="8.00"> &#160;&#160;&#160;</text>
<text text-anchor="start" x="653" y="-177.6" font-family="Roboto" font-size="8.00"> &#160;&#160;&#160;</text>
<text text-anchor="start" x="663" y="-177.6" font-family="Roboto" font-size="8.00">CharField</text>
<text text-anchor="start" x="699" y="-177.6" font-family="Roboto" font-size="8.00"> &#160;&#160;&#160;</text>
<text text-anchor="start" x="587" y="-164.6" font-family="Roboto" font-size="8.00"> &#160;&#160;&#160;</text>
<text text-anchor="start" x="597" y="-164.6" font-family="Roboto" font-size="8.00">proficiency</text>
<text text-anchor="start" x="639" y="-164.6" font-family="Roboto" font-size="8.00"> &#160;&#160;&#160;</text>
<text text-anchor="start" x="653" y="-164.6" font-family="Roboto" font-size="8.00"> &#160;&#160;&#160;</text>
<text text-anchor="start" x="663" y="-164.6" font-family="Roboto" font-size="8.00">IntegerField</text>
<text text-anchor="start" x="708" y="-164.6" font-family="Roboto" font-size="8.00"> &#160;&#160;&#160;</text>
<polygon fill="none" stroke="black" points="583.5,-158 583.5,-220 720.5,-220 720.5,-158 583.5,-158"/>
</g>
<!-- rest_apis_models_skills&#45;&gt;rest_apis_models_userinfo -->
<g id="edge4" class="edge"><title>rest_apis_models_skills&#45;&gt;rest_apis_models_userinfo</title>
<path fill="none" stroke="black" d="M677.081,-146.997C687.871,-129.356 700.558,-108.617 711.771,-90.284"/>
<ellipse fill="black" stroke="black" cx="674.954" cy="-150.474" rx="4.00002" ry="4.00002"/>
<ellipse fill="black" stroke="black" cx="714.064" cy="-86.5358" rx="4.00002" ry="4.00002"/>
<text text-anchor="middle" x="731" y="-103.6" font-family="Roboto" font-size="8.00"> users (skills)</text>
</g>
<!-- rest_apis_models_projects -->
<g id="node6" class="node"><title>rest_apis_models_projects</title>
<polygon fill="white" stroke="none" points="755,-132 755,-246 905,-246 905,-132 755,-132"/>
<polygon fill="#1b563f" stroke="none" points="756,-224 756,-245 904,-245 904,-224 756,-224"/>
<text text-anchor="start" x="798.5" y="-233" font-family="Roboto" font-size="8.00"> &#160;&#160;&#160;</text>
<text text-anchor="start" x="808.5" y="-233" font-family="Roboto" font-weight="bold" font-size="10.00" fill="white"> &#160;&#160;&#160;projects &#160;&#160;&#160;</text>
<text text-anchor="start" x="758" y="-216.6" font-family="Roboto" font-size="8.00"> &#160;&#160;&#160;</text>
<text text-anchor="start" x="768" y="-216.6" font-family="Roboto" font-weight="bold" font-size="8.00">id</text>
<text text-anchor="start" x="775" y="-216.6" font-family="Roboto" font-size="8.00"> &#160;&#160;&#160;</text>
<text text-anchor="start" x="825" y="-216.6" font-family="Roboto" font-size="8.00"> &#160;&#160;&#160;</text>
<text text-anchor="start" x="835" y="-216.6" font-family="Roboto" font-weight="bold" font-size="8.00">AutoField</text>
<text text-anchor="start" x="871" y="-216.6" font-family="Roboto" font-size="8.00"> &#160;&#160;&#160;</text>
<text text-anchor="start" x="758" y="-203.6" font-family="Roboto" font-size="8.00"> &#160;&#160;&#160;</text>
<text text-anchor="start" x="768" y="-203.6" font-family="Roboto" font-weight="bold" font-size="8.00">users</text>
<text text-anchor="start" x="790" y="-203.6" font-family="Roboto" font-size="8.00"> &#160;&#160;&#160;</text>
<text text-anchor="start" x="825" y="-203.6" font-family="Roboto" font-size="8.00"> &#160;&#160;&#160;</text>
<text text-anchor="start" x="835" y="-203.6" font-family="Roboto" font-weight="bold" font-size="8.00">ForeignKey (id)</text>
<text text-anchor="start" x="892" y="-203.6" font-family="Roboto" font-size="8.00"> &#160;&#160;&#160;</text>
<text text-anchor="start" x="758" y="-190.6" font-family="Roboto" font-size="8.00"> &#160;&#160;&#160;</text>
<text text-anchor="start" x="768" y="-190.6" font-family="Roboto" font-size="8.00">description</text>
<text text-anchor="start" x="811" y="-190.6" font-family="Roboto" font-size="8.00"> &#160;&#160;&#160;</text>
<text text-anchor="start" x="825" y="-190.6" font-family="Roboto" font-size="8.00"> &#160;&#160;&#160;</text>
<text text-anchor="start" x="835" y="-190.6" font-family="Roboto" font-size="8.00">CharField</text>
<text text-anchor="start" x="871" y="-190.6" font-family="Roboto" font-size="8.00"> &#160;&#160;&#160;</text>
<text text-anchor="start" x="758" y="-177.6" font-family="Roboto" font-size="8.00"> &#160;&#160;&#160;</text>
<text text-anchor="start" x="768" y="-177.6" font-family="Roboto" font-size="8.00">ends</text>
<text text-anchor="start" x="787" y="-177.6" font-family="Roboto" font-size="8.00"> &#160;&#160;&#160;</text>
<text text-anchor="start" x="825" y="-177.6" font-family="Roboto" font-size="8.00"> &#160;&#160;&#160;</text>
<text text-anchor="start" x="835" y="-177.6" font-family="Roboto" font-size="8.00">DateField</text>
<text text-anchor="start" x="871" y="-177.6" font-family="Roboto" font-size="8.00"> &#160;&#160;&#160;</text>
<text text-anchor="start" x="758" y="-164.6" font-family="Roboto" font-size="8.00"> &#160;&#160;&#160;</text>
<text text-anchor="start" x="768" y="-164.6" font-family="Roboto" font-size="8.00">info</text>
<text text-anchor="start" x="783" y="-164.6" font-family="Roboto" font-size="8.00"> &#160;&#160;&#160;</text>
<text text-anchor="start" x="825" y="-164.6" font-family="Roboto" font-size="8.00"> &#160;&#160;&#160;</text>
<text text-anchor="start" x="835" y="-164.6" font-family="Roboto" font-size="8.00">CharField</text>
<text text-anchor="start" x="871" y="-164.6" font-family="Roboto" font-size="8.00"> &#160;&#160;&#160;</text>
<text text-anchor="start" x="758" y="-151.6" font-family="Roboto" font-size="8.00"> &#160;&#160;&#160;</text>
<text text-anchor="start" x="768" y="-151.6" font-family="Roboto" font-size="8.00">starts</text>
<text text-anchor="start" x="791" y="-151.6" font-family="Roboto" font-size="8.00"> &#160;&#160;&#160;</text>
<text text-anchor="start" x="825" y="-151.6" font-family="Roboto" font-size="8.00"> &#160;&#160;&#160;</text>
<text text-anchor="start" x="835" y="-151.6" font-family="Roboto" font-size="8.00">DateField</text>
<text text-anchor="start" x="871" y="-151.6" font-family="Roboto" font-size="8.00"> &#160;&#160;&#160;</text>
<text text-anchor="start" x="758" y="-138.6" font-family="Roboto" font-size="8.00"> &#160;&#160;&#160;</text>
<text text-anchor="start" x="768" y="-138.6" font-family="Roboto" font-size="8.00">status</text>
<text text-anchor="start" x="793" y="-138.6" font-family="Roboto" font-size="8.00"> &#160;&#160;&#160;</text>
<text text-anchor="start" x="825" y="-138.6" font-family="Roboto" font-size="8.00"> &#160;&#160;&#160;</text>
<text text-anchor="start" x="835" y="-138.6" font-family="Roboto" font-size="8.00">CharField</text>
<text text-anchor="start" x="871" y="-138.6" font-family="Roboto" font-size="8.00"> &#160;&#160;&#160;</text>
<polygon fill="none" stroke="black" points="755,-132 755,-246 905,-246 905,-132 755,-132"/>
</g>
<!-- rest_apis_models_projects&#45;&gt;rest_apis_models_userinfo -->
<g id="edge5" class="edge"><title>rest_apis_models_projects&#45;&gt;rest_apis_models_userinfo</title>
<path fill="none" stroke="black" d="M788.95,-120.89C781.106,-108.066 773.118,-95.0074 765.969,-83.3202"/>
<ellipse fill="black" stroke="black" cx="791.199" cy="-124.567" rx="4.00002" ry="4.00002"/>
<text text-anchor="middle" x="812.5" y="-103.6" font-family="Roboto" font-size="8.00"> users (projects)</text>
</g>
<!-- rest_apis_models_achievements -->
<g id="node7" class="node"><title>rest_apis_models_achievements</title>
<polygon fill="white" stroke="none" points="939.5,-151.5 939.5,-226.5 1068.5,-226.5 1068.5,-151.5 939.5,-151.5"/>
<polygon fill="#1b563f" stroke="none" points="941,-204 941,-225 1068,-225 1068,-204 941,-204"/>
<text text-anchor="start" x="960" y="-213" font-family="Roboto" font-size="8.00"> &#160;&#160;&#160;</text>
<text text-anchor="start" x="970" y="-213" font-family="Roboto" font-weight="bold" font-size="10.00" fill="white"> &#160;&#160;&#160;achievements &#160;&#160;&#160;</text>
<text text-anchor="start" x="943" y="-196.6" font-family="Roboto" font-size="8.00"> &#160;&#160;&#160;</text>
<text text-anchor="start" x="953" y="-196.6" font-family="Roboto" font-weight="bold" font-size="8.00">id</text>
<text text-anchor="start" x="960" y="-196.6" font-family="Roboto" font-size="8.00"> &#160;&#160;&#160;</text>
<text text-anchor="start" x="989" y="-196.6" font-family="Roboto" font-size="8.00"> &#160;&#160;&#160;</text>
<text text-anchor="start" x="999" y="-196.6" font-family="Roboto" font-weight="bold" font-size="8.00">AutoField</text>
<text text-anchor="start" x="1035" y="-196.6" font-family="Roboto" font-size="8.00"> &#160;&#160;&#160;</text>
<text text-anchor="start" x="943" y="-183.6" font-family="Roboto" font-size="8.00"> &#160;&#160;&#160;</text>
<text text-anchor="start" x="953" y="-183.6" font-family="Roboto" font-weight="bold" font-size="8.00">users</text>
<text text-anchor="start" x="975" y="-183.6" font-family="Roboto" font-size="8.00"> &#160;&#160;&#160;</text>
<text text-anchor="start" x="989" y="-183.6" font-family="Roboto" font-size="8.00"> &#160;&#160;&#160;</text>
<text text-anchor="start" x="999" y="-183.6" font-family="Roboto" font-weight="bold" font-size="8.00">ForeignKey (id)</text>
<text text-anchor="start" x="1056" y="-183.6" font-family="Roboto" font-size="8.00"> &#160;&#160;&#160;</text>
<text text-anchor="start" x="943" y="-170.6" font-family="Roboto" font-size="8.00"> &#160;&#160;&#160;</text>
<text text-anchor="start" x="953" y="-170.6" font-family="Roboto" font-size="8.00">date</text>
<text text-anchor="start" x="970" y="-170.6" font-family="Roboto" font-size="8.00"> &#160;&#160;&#160;</text>
<text text-anchor="start" x="989" y="-170.6" font-family="Roboto" font-size="8.00"> &#160;&#160;&#160;</text>
<text text-anchor="start" x="999" y="-170.6" font-family="Roboto" font-size="8.00">DateField</text>
<text text-anchor="start" x="1035" y="-170.6" font-family="Roboto" font-size="8.00"> &#160;&#160;&#160;</text>
<text text-anchor="start" x="943" y="-157.6" font-family="Roboto" font-size="8.00"> &#160;&#160;&#160;</text>
<text text-anchor="start" x="953" y="-157.6" font-family="Roboto" font-size="8.00">title</text>
<text text-anchor="start" x="969" y="-157.6" font-family="Roboto" font-size="8.00"> &#160;&#160;&#160;</text>
<text text-anchor="start" x="989" y="-157.6" font-family="Roboto" font-size="8.00"> &#160;&#160;&#160;</text>
<text text-anchor="start" x="999" y="-157.6" font-family="Roboto" font-size="8.00">CharField</text>
<text text-anchor="start" x="1035" y="-157.6" font-family="Roboto" font-size="8.00"> &#160;&#160;&#160;</text>
<polygon fill="none" stroke="black" points="939.5,-151.5 939.5,-226.5 1068.5,-226.5 1068.5,-151.5 939.5,-151.5"/>
</g>
<!-- rest_apis_models_achievements&#45;&gt;rest_apis_models_userinfo -->
<g id="edge6" class="edge"><title>rest_apis_models_achievements&#45;&gt;rest_apis_models_userinfo</title>
<path fill="none" stroke="black" d="M944.782,-142.657C937.256,-137.497 929.545,-132.487 922,-128 886.006,-106.595 843.794,-86.3975 809.193,-71.013"/>
<ellipse fill="black" stroke="black" cx="948.35" cy="-145.141" rx="4.00002" ry="4.00002"/>
<text text-anchor="middle" x="931.5" y="-103.6" font-family="Roboto" font-size="8.00"> users (achievements)</text>
</g>
<!-- rest_apis_models_chat -->
<g id="node8" class="node"><title>rest_apis_models_chat</title>
<polygon fill="white" stroke="none" points="1103,-151.5 1103,-226.5 1245,-226.5 1245,-151.5 1103,-151.5"/>
<polygon fill="#1b563f" stroke="none" points="1104,-204 1104,-225 1244,-225 1244,-204 1104,-204"/>
<text text-anchor="start" x="1150.5" y="-213" font-family="Roboto" font-size="8.00"> &#160;&#160;&#160;</text>
<text text-anchor="start" x="1160.5" y="-213" font-family="Roboto" font-weight="bold" font-size="10.00" fill="white"> &#160;&#160;&#160;chat &#160;&#160;&#160;</text>
<text text-anchor="start" x="1106" y="-196.6" font-family="Roboto" font-size="8.00"> &#160;&#160;&#160;</text>
<text text-anchor="start" x="1116" y="-196.6" font-family="Roboto" font-weight="bold" font-size="8.00">id</text>
<text text-anchor="start" x="1123" y="-196.6" font-family="Roboto" font-size="8.00"> &#160;&#160;&#160;</text>
<text text-anchor="start" x="1165" y="-196.6" font-family="Roboto" font-size="8.00"> &#160;&#160;&#160;</text>
<text text-anchor="start" x="1175" y="-196.6" font-family="Roboto" font-weight="bold" font-size="8.00">AutoField</text>
<text text-anchor="start" x="1211" y="-196.6" font-family="Roboto" font-size="8.00"> &#160;&#160;&#160;</text>
<text text-anchor="start" x="1106" y="-183.6" font-family="Roboto" font-size="8.00"> &#160;&#160;&#160;</text>
<text text-anchor="start" x="1116" y="-183.6" font-family="Roboto" font-weight="bold" font-size="8.00">receiver</text>
<text text-anchor="start" x="1147" y="-183.6" font-family="Roboto" font-size="8.00"> &#160;&#160;&#160;</text>
<text text-anchor="start" x="1165" y="-183.6" font-family="Roboto" font-size="8.00"> &#160;&#160;&#160;</text>
<text text-anchor="start" x="1175" y="-183.6" font-family="Roboto" font-weight="bold" font-size="8.00">ForeignKey (id)</text>
<text text-anchor="start" x="1232" y="-183.6" font-family="Roboto" font-size="8.00"> &#160;&#160;&#160;</text>
<text text-anchor="start" x="1106" y="-170.6" font-family="Roboto" font-size="8.00"> &#160;&#160;&#160;</text>
<text text-anchor="start" x="1116" y="-170.6" font-family="Roboto" font-weight="bold" font-size="8.00">sender</text>
<text text-anchor="start" x="1142" y="-170.6" font-family="Roboto" font-size="8.00"> &#160;&#160;&#160;</text>
<text text-anchor="start" x="1165" y="-170.6" font-family="Roboto" font-size="8.00"> &#160;&#160;&#160;</text>
<text text-anchor="start" x="1175" y="-170.6" font-family="Roboto" font-weight="bold" font-size="8.00">ForeignKey (id)</text>
<text text-anchor="start" x="1232" y="-170.6" font-family="Roboto" font-size="8.00"> &#160;&#160;&#160;</text>
<text text-anchor="start" x="1106" y="-157.6" font-family="Roboto" font-size="8.00"> &#160;&#160;&#160;</text>
<text text-anchor="start" x="1116" y="-157.6" font-family="Roboto" font-size="8.00">message</text>
<text text-anchor="start" x="1151" y="-157.6" font-family="Roboto" font-size="8.00"> &#160;&#160;&#160;</text>
<text text-anchor="start" x="1165" y="-157.6" font-family="Roboto" font-size="8.00"> &#160;&#160;&#160;</text>
<text text-anchor="start" x="1175" y="-157.6" font-family="Roboto" font-size="8.00">CharField</text>
<text text-anchor="start" x="1211" y="-157.6" font-family="Roboto" font-size="8.00"> &#160;&#160;&#160;</text>
<polygon fill="none" stroke="black" points="1103,-151.5 1103,-226.5 1245,-226.5 1245,-151.5 1103,-151.5"/>
</g>
<!-- rest_apis_models_chat&#45;&gt;rest_apis_models_userinfo -->
<g id="edge7" class="edge"><title>rest_apis_models_chat&#45;&gt;rest_apis_models_userinfo</title>
<path fill="none" stroke="black" d="M1113.25,-143.086C1104.07,-137.481 1094.49,-132.24 1085,-128 993.978,-87.3331 880.4,-63.8966 809.264,-52.1685"/>
<ellipse fill="black" stroke="black" cx="1116.8" cy="-145.307" rx="4.00002" ry="4.00002"/>
<text text-anchor="middle" x="1076.5" y="-103.6" font-family="Roboto" font-size="8.00"> receiver (receiver)</text>
</g>
<!-- rest_apis_models_chat&#45;&gt;rest_apis_models_userinfo -->
<g id="edge8" class="edge"><title>rest_apis_models_chat&#45;&gt;rest_apis_models_userinfo</title>
<path fill="none" stroke="black" d="M1151.87,-140.031C1142.78,-125.305 1130.85,-110.495 1116,-101 1066.38,-69.2816 903.226,-53.3362 809.277,-46.6012"/>
<ellipse fill="black" stroke="black" cx="1154.08" cy="-143.782" rx="4.00002" ry="4.00002"/>
<text text-anchor="middle" x="1159" y="-103.6" font-family="Roboto" font-size="8.00"> sender (sender)</text>
</g>
</g>
</svg>
